<?xml version="1.0" encoding="UTF-8" standalone="no"?>
<!DOCTYPE svg PUBLIC "-//W3C//DTD SVG 1.1//EN"
 "http://www.w3.org/Graphics/SVG/1.1/DTD/svg11.dtd">
<!-- Generated by graphviz version 2.36.0 (20140111.2315)
 -->
<!-- Title: %3 Pages: 1 -->
<svg width="920pt" height="404pt"
 viewBox="0.00 0.00 920.00 404.00" xmlns="http://www.w3.org/2000/svg" xmlns:xlink="http://www.w3.org/1999/xlink">
<g id="graph0" class="graph" transform="scale(1 1) rotate(0) translate(4 400)">
<title>%3</title>
<polygon fill="white" stroke="none" points="-4,4 -4,-400 916,-400 916,4 -4,4"/>
<!-- [root] aws_elb.web -->
<g id="node1" class="node"><title>[root] aws_elb.web</title>
<polygon fill="none" stroke="black" points="521.25,-396 432.75,-396 432.75,-360 521.25,-360 521.25,-396"/>
<text text-anchor="middle" x="477" y="-374.3" font-family="Times,serif" font-size="14.00">aws_elb.web</text>
</g>
<!-- [root] aws_instance.web -->
<g id="node2" class="node"><title>[root] aws_instance.web</title>
<polygon fill="none" stroke="black" points="469,-324 351,-324 351,-288 469,-288 469,-324"/>
<text text-anchor="middle" x="410" y="-302.3" font-family="Times,serif" font-size="14.00">aws_instance.web</text>
</g>
<!-- [root] aws_elb.web&#45;&gt;[root] aws_instance.web -->
<g id="edge1" class="edge"><title>[root] aws_elb.web&#45;&gt;[root] aws_instance.web</title>
<path fill="none" stroke="black" d="M460.438,-359.697C452.325,-351.22 442.412,-340.864 433.529,-331.583"/>
<polygon fill="black" stroke="black" points="435.814,-328.908 426.371,-324.104 430.757,-333.749 435.814,-328.908"/>
</g>
<!-- [root] aws_security_group.web_inbound_sg -->
<g id="node4" class="node"><title>[root] aws_security_group.web_inbound_sg</title>
<polygon fill="none" stroke="black" points="228,-252 0,-252 0,-216 228,-216 228,-252"/>
<text text-anchor="middle" x="114" y="-230.3" font-family="Times,serif" font-size="14.00">aws_security_group.web_inbound_sg</text>
</g>
<!-- [root] aws_elb.web&#45;&gt;[root] aws_security_group.web_inbound_sg -->
<g id="edge2" class="edge"><title>[root] aws_elb.web&#45;&gt;[root] aws_security_group.web_inbound_sg</title>
<path fill="none" stroke="black" d="M433.214,-359.871C366.351,-333.716 239,-283.898 167.01,-255.737"/>
<polygon fill="black" stroke="black" points="168.247,-252.462 157.659,-252.079 165.696,-258.981 168.247,-252.462"/>
</g>
<!-- [root] module.vpc.aws_subnet.public -->
<g id="node7" class="node"><title>[root] module.vpc.aws_subnet.public</title>
<polygon fill="none" stroke="black" points="628,-252 508,-252 508,-216 628,-216 628,-252"/>
<text text-anchor="middle" x="568" y="-230.3" font-family="Times,serif" font-size="14.00">aws_subnet.public</text>
</g>
<!-- [root] aws_elb.web&#45;&gt;[root] module.vpc.aws_subnet.public -->
<g id="edge3" class="edge"><title>[root] aws_elb.web&#45;&gt;[root] module.vpc.aws_subnet.public</title>
<path fill="none" stroke="black" d="M487.977,-359.871C503.759,-335.244 532.986,-289.638 551.412,-260.885"/>
<polygon fill="black" stroke="black" points="554.536,-262.497 556.984,-252.189 548.642,-258.72 554.536,-262.497"/>
</g>
<!-- [root] provider.aws -->
<g id="node10" class="node"><title>[root] provider.aws</title>
<polygon fill="none" stroke="black" points="387,-36 305.791,-18 387,-3.55271e-15 468.209,-18 387,-36"/>
<text text-anchor="middle" x="387" y="-14.3" font-family="Times,serif" font-size="14.00">provider.aws</text>
</g>
<!-- [root] aws_elb.web&#45;&gt;[root] provider.aws -->
<g id="edge4" class="edge"><title>[root] aws_elb.web&#45;&gt;[root] provider.aws</title>
<path fill="none" stroke="black" d="M521.557,-375.363C609.27,-371.405 800.543,-358.923 855,-324 894.54,-298.643 912,-281.973 912,-235 912,-235 912,-235 912,-161 912,-67.9852 601.039,-34.0339 457.757,-23.3272"/>
<polygon fill="black" stroke="black" points="457.965,-19.8332 447.737,-22.596 457.456,-26.8146 457.965,-19.8332"/>
</g>
<!-- [root] aws_security_group.web_host_sg -->
<g id="node3" class="node"><title>[root] aws_security_group.web_host_sg</title>
<polygon fill="none" stroke="black" points="490,-252 284,-252 284,-216 490,-216 490,-252"/>
<text text-anchor="middle" x="387" y="-230.3" font-family="Times,serif" font-size="14.00">aws_security_group.web_host_sg</text>
</g>
<!-- [root] aws_instance.web&#45;&gt;[root] aws_security_group.web_host_sg -->
<g id="edge5" class="edge"><title>[root] aws_instance.web&#45;&gt;[root] aws_security_group.web_host_sg</title>
<path fill="none" stroke="black" d="M404.315,-287.697C401.752,-279.898 398.667,-270.509 395.815,-261.829"/>
<polygon fill="black" stroke="black" points="399.067,-260.512 392.62,-252.104 392.416,-262.697 399.067,-260.512"/>
</g>
<!-- [root] aws_instance.web&#45;&gt;[root] module.vpc.aws_subnet.public -->
<g id="edge6" class="edge"><title>[root] aws_instance.web&#45;&gt;[root] module.vpc.aws_subnet.public</title>
<path fill="none" stroke="black" d="M448.651,-287.876C470.251,-278.307 497.351,-266.3 520.266,-256.148"/>
<polygon fill="black" stroke="black" points="521.749,-259.319 529.474,-252.068 518.914,-252.919 521.749,-259.319"/>
</g>
<!-- [root] aws_instance.web&#45;&gt;[root] provider.aws -->
<g id="edge7" class="edge"><title>[root] aws_instance.web&#45;&gt;[root] provider.aws</title>
<path fill="none" stroke="black" d="M350.938,-297.244C323.002,-290.281 292.09,-277.07 275,-252 225.411,-179.258 317.568,-81.1959 363.368,-39.3217"/>
<polygon fill="black" stroke="black" points="365.713,-41.9199 370.815,-32.6342 361.036,-36.7117 365.713,-41.9199"/>
</g>
<!-- [root] module.vpc.aws_vpc.tfb -->
<g id="node8" class="node"><title>[root] module.vpc.aws_vpc.tfb</title>
<polygon fill="none" stroke="black" points="610.25,-180 525.75,-180 525.75,-144 610.25,-144 610.25,-180"/>
<text text-anchor="middle" x="568" y="-158.3" font-family="Times,serif" font-size="14.00">aws_vpc.tfb</text>
</g>
<!-- [root] aws_security_group.web_host_sg&#45;&gt;[root] module.vpc.aws_vpc.tfb -->
<g id="edge8" class="edge"><title>[root] aws_security_group.web_host_sg&#45;&gt;[root] module.vpc.aws_vpc.tfb</title>
<path fill="none" stroke="black" d="M431.278,-215.876C456.911,-205.963 489.306,-193.434 516.129,-183.061"/>
<polygon fill="black" stroke="black" points="517.671,-186.217 525.736,-179.345 515.146,-179.688 517.671,-186.217"/>
</g>
<!-- [root] aws_security_group.web_host_sg&#45;&gt;[root] provider.aws -->
<g id="edge9" class="edge"><title>[root] aws_security_group.web_host_sg&#45;&gt;[root] provider.aws</title>
<path fill="none" stroke="black" d="M387,-215.849C387,-178.832 387,-91.1809 387,-46.3863"/>
<polygon fill="black" stroke="black" points="390.5,-46.2324 387,-36.2325 383.5,-46.2325 390.5,-46.2324"/>
</g>
<!-- [root] aws_security_group.web_inbound_sg&#45;&gt;[root] module.vpc.aws_vpc.tfb -->
<g id="edge10" class="edge"><title>[root] aws_security_group.web_inbound_sg&#45;&gt;[root] module.vpc.aws_vpc.tfb</title>
<path fill="none" stroke="black" d="M224.48,-215.966C316.917,-201.713 444.721,-182.008 515.502,-171.094"/>
<polygon fill="black" stroke="black" points="516.17,-174.533 525.52,-169.55 515.104,-167.615 516.17,-174.533"/>
</g>
<!-- [root] aws_security_group.web_inbound_sg&#45;&gt;[root] provider.aws -->
<g id="edge11" class="edge"><title>[root] aws_security_group.web_inbound_sg&#45;&gt;[root] provider.aws</title>
<path fill="none" stroke="black" d="M123.284,-215.871C141.735,-183.349 186.101,-112.31 242,-72 270.516,-51.4363 307.878,-38.0311 337.535,-29.8473"/>
<polygon fill="black" stroke="black" points="338.501,-33.212 347.273,-27.2693 336.71,-26.4451 338.501,-33.212"/>
</g>
<!-- [root] module.vpc.aws_internet_gateway.tfb -->
<g id="node5" class="node"><title>[root] module.vpc.aws_internet_gateway.tfb</title>
<polygon fill="none" stroke="black" points="845.25,-252 684.75,-252 684.75,-216 845.25,-216 845.25,-252"/>
<text text-anchor="middle" x="765" y="-230.3" font-family="Times,serif" font-size="14.00">aws_internet_gateway.tfb</text>
</g>
<!-- [root] module.vpc.aws_internet_gateway.tfb&#45;&gt;[root] module.vpc.aws_vpc.tfb -->
<g id="edge12" class="edge"><title>[root] module.vpc.aws_internet_gateway.tfb&#45;&gt;[root] module.vpc.aws_vpc.tfb</title>
<path fill="none" stroke="black" d="M717.06,-215.966C687.668,-205.522 650.036,-192.15 619.937,-181.455"/>
<polygon fill="black" stroke="black" points="621.044,-178.134 610.45,-178.084 618.701,-184.73 621.044,-178.134"/>
</g>
<!-- [root] module.vpc.provider.aws -->
<g id="node9" class="node"><title>[root] module.vpc.provider.aws</title>
<polygon fill="none" stroke="black" points="639,-108 557.791,-90 639,-72 720.209,-90 639,-108"/>
<text text-anchor="middle" x="639" y="-86.3" font-family="Times,serif" font-size="14.00">provider.aws</text>
</g>
<!-- [root] module.vpc.aws_internet_gateway.tfb&#45;&gt;[root] module.vpc.provider.aws -->
<g id="edge13" class="edge"><title>[root] module.vpc.aws_internet_gateway.tfb&#45;&gt;[root] module.vpc.provider.aws</title>
<path fill="none" stroke="black" d="M749.801,-215.871C727.045,-190.225 684.101,-141.828 658.881,-113.405"/>
<polygon fill="black" stroke="black" points="661.222,-110.77 651.966,-105.613 655.986,-115.416 661.222,-110.77"/>
</g>
<!-- [root] module.vpc.aws_route.internet_access -->
<g id="node6" class="node"><title>[root] module.vpc.aws_route.internet_access</title>
<polygon fill="none" stroke="black" points="846.25,-324 683.75,-324 683.75,-288 846.25,-288 846.25,-324"/>
<text text-anchor="middle" x="765" y="-302.3" font-family="Times,serif" font-size="14.00">aws_route.internet_access</text>
</g>
<!-- [root] module.vpc.aws_route.internet_access&#45;&gt;[root] module.vpc.aws_internet_gateway.tfb -->
<g id="edge14" class="edge"><title>[root] module.vpc.aws_route.internet_access&#45;&gt;[root] module.vpc.aws_internet_gateway.tfb</title>
<path fill="none" stroke="black" d="M765,-287.697C765,-279.983 765,-270.712 765,-262.112"/>
<polygon fill="black" stroke="black" points="768.5,-262.104 765,-252.104 761.5,-262.104 768.5,-262.104"/>
</g>
<!-- [root] module.vpc.aws_route.internet_access&#45;&gt;[root] module.vpc.aws_vpc.tfb -->
<g id="edge15" class="edge"><title>[root] module.vpc.aws_route.internet_access&#45;&gt;[root] module.vpc.aws_vpc.tfb</title>
<path fill="none" stroke="black" d="M731.793,-287.81C714.291,-278.173 692.819,-265.414 675,-252 656.413,-238.008 654.693,-231.106 637,-216 625.168,-205.898 611.687,-195.345 599.8,-186.34"/>
<polygon fill="black" stroke="black" points="601.569,-183.292 591.472,-180.084 597.365,-188.889 601.569,-183.292"/>
</g>
<!-- [root] module.vpc.aws_route.internet_access&#45;&gt;[root] module.vpc.provider.aws -->
<g id="edge16" class="edge"><title>[root] module.vpc.aws_route.internet_access&#45;&gt;[root] module.vpc.provider.aws</title>
<path fill="none" stroke="black" d="M813.032,-287.85C828.966,-279.601 844.936,-267.947 854,-252 861.906,-238.09 861.979,-229.869 854,-216 817.893,-153.242 736.836,-119.067 685.21,-102.957"/>
<polygon fill="black" stroke="black" points="686.2,-99.6 675.615,-100.065 684.18,-106.302 686.2,-99.6"/>
</g>
<!-- [root] module.vpc.aws_subnet.public&#45;&gt;[root] module.vpc.aws_vpc.tfb -->
<g id="edge17" class="edge"><title>[root] module.vpc.aws_subnet.public&#45;&gt;[root] module.vpc.aws_vpc.tfb</title>
<path fill="none" stroke="black" d="M568,-215.697C568,-207.983 568,-198.712 568,-190.112"/>
<polygon fill="black" stroke="black" points="571.5,-190.104 568,-180.104 564.5,-190.104 571.5,-190.104"/>
</g>
<!-- [root] module.vpc.aws_subnet.public&#45;&gt;[root] module.vpc.provider.aws -->
<g id="edge18" class="edge"><title>[root] module.vpc.aws_subnet.public&#45;&gt;[root] module.vpc.provider.aws</title>
<path fill="none" stroke="black" d="M589.224,-215.915C599.69,-206.399 611.619,-193.719 619,-180 629.35,-160.764 634.353,-136.42 636.766,-118.057"/>
<polygon fill="black" stroke="black" points="640.255,-118.351 637.908,-108.019 633.3,-117.559 640.255,-118.351"/>
</g>
<!-- [root] module.vpc.aws_vpc.tfb&#45;&gt;[root] module.vpc.provider.aws -->
<g id="edge19" class="edge"><title>[root] module.vpc.aws_vpc.tfb&#45;&gt;[root] module.vpc.provider.aws</title>
<path fill="none" stroke="black" d="M585.551,-143.697C595.106,-134.276 607.015,-122.534 617.166,-112.527"/>
<polygon fill="black" stroke="black" points="619.853,-114.792 624.517,-105.279 614.939,-109.807 619.853,-114.792"/>
</g>
<!-- [root] module.vpc.provider.aws&#45;&gt;[root] provider.aws -->
<g id="edge20" class="edge"><title>[root] module.vpc.provider.aws&#45;&gt;[root] provider.aws</title>
<path fill="none" stroke="black" d="M604.752,-79.4866C559.68,-66.9666 480.397,-44.9435 430.948,-31.2077"/>
<polygon fill="black" stroke="black" points="431.745,-27.7968 421.173,-28.4926 429.872,-34.5414 431.745,-27.7968"/>
</g>
</g>
</svg>
