<?xml version="1.0" encoding="UTF-8" standalone="no"?>
<!DOCTYPE svg PUBLIC "-//W3C//DTD SVG 1.1//EN"
 "http://www.w3.org/Graphics/SVG/1.1/DTD/svg11.dtd">
<!-- Generated by graphviz version 2.36.0 (20140111.2315)
 -->
<!-- Title: %3 Pages: 1 -->
<svg width="170pt" height="188pt"
 viewBox="0.00 0.00 170.00 188.00" xmlns="http://www.w3.org/2000/svg" xmlns:xlink="http://www.w3.org/1999/xlink">
<g id="graph0" class="graph" transform="scale(1 1) rotate(0) translate(4 184)">
<title>%3</title>
<polygon fill="white" stroke="none" points="-4,4 -4,-184 166,-184 166,4 -4,4"/>
<!-- [root] aws_eip.base -->
<g id="node1" class="node"><title>[root] aws_eip.base</title>
<polygon fill="none" stroke="black" points="126.25,-180 35.75,-180 35.75,-144 126.25,-144 126.25,-180"/>
<text text-anchor="middle" x="81" y="-158.3" font-family="Times,serif" font-size="14.00">aws_eip.base</text>
</g>
<!-- [root] aws_instance.base -->
<g id="node2" class="node"><title>[root] aws_instance.base</title>
<polygon fill="none" stroke="black" points="141,-108 21,-108 21,-72 141,-72 141,-108"/>
<text text-anchor="middle" x="81" y="-86.3" font-family="Times,serif" font-size="14.00">aws_instance.base</text>
</g>
<!-- [root] aws_eip.base&#45;&gt;[root] aws_instance.base -->
<g id="edge1" class="edge"><title>[root] aws_eip.base&#45;&gt;[root] aws_instance.base</title>
<path fill="none" stroke="black" d="M81,-143.697C81,-135.983 81,-126.712 81,-118.112"/>
<polygon fill="black" stroke="black" points="84.5001,-118.104 81,-108.104 77.5001,-118.104 84.5001,-118.104"/>
</g>
<!-- [root] provider.aws -->
<g id="node3" class="node"><title>[root] provider.aws</title>
<polygon fill="none" stroke="black" points="81,-36 -0.208915,-18 81,-3.55271e-15 162.209,-18 81,-36"/>
<text text-anchor="middle" x="81" y="-14.3" font-family="Times,serif" font-size="14.00">provider.aws</text>
</g>
<!-- [root] aws_instance.base&#45;&gt;[root] provider.aws -->
<g id="edge2" class="edge"><title>[root] aws_instance.base&#45;&gt;[root] provider.aws</title>
<path fill="none" stroke="black" d="M81,-71.6966C81,-63.9827 81,-54.7125 81,-46.1124"/>
<polygon fill="black" stroke="black" points="84.5001,-46.1043 81,-36.1043 77.5001,-46.1044 84.5001,-46.1043"/>
</g>
</g>
</svg>
